<svg xmlns="http://www.w3.org/2000/svg" xmlns:xlink="http://www.w3.org/1999/xlink" version="1.1" x="0px" y="0px" viewBox="0 0 100 125" enable-background="new 0 0 100 100" xml:space="preserve"><path d="M63.524,31.779h8.371L35.948,5.681l-12.311,8.938V9.206h-8.208v11.372L0,31.779h8.371v56.016H2.955v6.525h65.986v-6.525  h-5.417V31.779z M31.804,25.896h8.287v8.287h-8.287V25.896z M31.804,44.032h8.287v8.287h-8.287V44.032z M25.522,70.455h-8.287  v-8.287h8.287V70.455z M25.522,52.318h-8.287v-8.287h8.287V52.318z M40.872,88.103h-9.849V68.405h9.849V88.103z M54.66,70.455  h-8.287v-8.287h8.287L54.66,70.455z M54.66,52.318h-8.287v-8.287h8.287L54.66,52.318z"/><polygon points="83.463,89.038 78.158,63.902 73.41,89.038 77.451,89.038 77.451,94.319 79.421,94.319 79.421,89.038 "/><path d="M100,82.592c0-3.75-3.039-6.791-6.791-6.791c-3.751,0-6.792,3.04-6.792,6.791c0,3.416,2.523,6.233,5.807,6.711v5.016h1.97  v-5.016C97.476,88.826,100,86.008,100,82.592z"/><text x="0" y="115" fill="#000000" font-size="5px" font-weight="bold" font-family="'Helvetica Neue', Helvetica, Arial-Unicode, Arial, Sans-serif">Created by Lil Squid</text><text x="0" y="120" fill="#000000" font-size="5px" font-weight="bold" font-family="'Helvetica Neue', Helvetica, Arial-Unicode, Arial, Sans-serif">from the Noun Project</text></svg>