<?xml version="1.0" encoding="UTF-8"?>
<svg width="100px" height="90px" viewBox="0 0 100 90" version="1.1" xmlns="http://www.w3.org/2000/svg" xmlns:xlink="http://www.w3.org/1999/xlink">
    <!-- Generator: Sketch 63.1 (92452) - https://sketch.com -->
    <title>h</title>
    <desc>Created with Sketch.</desc>
    <g id="Page-1" stroke="none" stroke-width="1" fill="none" fill-rule="evenodd">
        <g id="h" fill-rule="nonzero">
            <path d="M63.524,26.779 L71.895,26.779 L35.948,0.681 L23.637,9.619 L23.637,4.206 L15.429,4.206 L15.429,15.578 L0,26.779 L8.371,26.779 L8.371,82.795 L2.955,82.795 L2.955,89.32 L68.941,89.32 L68.941,82.795 L63.524,82.795 L63.524,26.779 Z M31.804,20.896 L40.091,20.896 L40.091,29.183 L31.804,29.183 L31.804,20.896 L31.804,20.896 Z M31.804,39.032 L40.091,39.032 L40.091,47.319 L31.804,47.319 L31.804,39.032 L31.804,39.032 Z M25.522,65.455 L17.235,65.455 L17.235,57.168 L25.522,57.168 L25.522,65.455 Z M25.522,47.318 L17.235,47.318 L17.235,39.031 L25.522,39.031 L25.522,47.318 Z M40.872,83.103 L31.023,83.103 L31.023,63.405 L40.872,63.405 L40.872,83.103 Z M54.66,65.455 L46.373,65.455 L46.373,57.168 L54.66,57.168 L54.66,65.455 Z M54.66,47.318 L46.373,47.318 L46.373,39.031 L54.66,39.031 L54.66,47.318 Z" id="Shape" fill="#858585"></path>
            <polygon id="Path" fill="#417505" points="83.463 84.038 78.158 58.902 73.41 84.038 77.451 84.038 77.451 89.319 79.421 89.319 79.421 84.038"></polygon>
            <path d="M100,77.592 C100,73.842 96.961,70.801 93.209,70.801 C89.458,70.801 86.417,73.841 86.417,77.592 C86.417,81.008 88.94,83.825 92.224,84.303 L92.224,89.319 L94.194,89.319 L94.194,84.303 C97.476,83.826 100,81.008 100,77.592 Z" id="Path" fill="#87CF3E"></path>
        </g>
    </g>
</svg>